<?xml version="1.0" encoding="utf-8"?>
<!-- Generator: Adobe Illustrator 16.0.0, SVG Export Plug-In . SVG Version: 6.00 Build 0)  -->
<!DOCTYPE svg PUBLIC "-//W3C//DTD SVG 1.1//EN" "http://www.w3.org/Graphics/SVG/1.1/DTD/svg11.dtd">
<svg version="1.1" id="Layer_1" xmlns="http://www.w3.org/2000/svg" xmlns:xlink="http://www.w3.org/1999/xlink" x="0px" y="0px"
	 width="464px" height="464px" viewBox="0 0 464 464" enable-background="new 0 0 464 464" xml:space="preserve">
<path fill="#FF0000" d="M0.07,256.703C0.453,274.074,14.625,287.965,32,288h400c17.672,0,32-14.328,32-32V35.449L0.07,256.703z"/>
<path fill="#FF2929" d="M464,32c0-17.672-14.328-32-32-32H32C14.328,0,0,14.328,0,32v224c0,0.238,0.062,0.465,0.07,0.703L464,35.449
	V32z"/>
<g>
	<path fill="#F1F2F2" d="M128,200H72V80c0-4.418-3.582-8-8-8s-8,3.582-8,8v128c0,4.418,3.582,8,8,8h64c4.418,0,8-3.582,8-8
		S132.418,200,128,200z"/>
	<path fill="#F1F2F2" d="M400,88c4.418,0,8-3.582,8-8s-3.582-8-8-8h-64c-4.418,0-8,3.582-8,8v128c0,4.418,3.582,8,8,8h64
		c4.418,0,8-3.582,8-8s-3.582-8-8-8h-56v-48h40c4.418,0,8-3.582,8-8s-3.582-8-8-8h-40V88H400z"/>
	<path fill="#F1F2F2" d="M168,72c-4.418,0-8,3.582-8,8v128c0,4.418,3.582,8,8,8s8-3.582,8-8V80C176,75.582,172.418,72,168,72z"/>
	<path fill="#F1F2F2" d="M298.809,72.504c-1.988-0.746-4.191-0.672-6.125,0.207s-3.438,2.492-4.18,4.48l-39.816,106.191
		L215.641,77.602c-1.324-4.223-5.82-6.566-10.039-5.242c-4.223,1.324-6.566,5.82-5.242,10.039l40,128
		c1.023,3.262,4.004,5.508,7.418,5.602H248c3.336,0.004,6.324-2.066,7.496-5.191l48-128c0.746-1.988,0.672-4.191-0.207-6.125
		S300.797,73.246,298.809,72.504z"/>
</g>
</svg>
